<?xml version="1.0" standalone="no"?>
<!DOCTYPE svg PUBLIC "-//W3C//DTD SVG 20010904//EN"
 "http://www.w3.org/TR/2001/REC-SVG-20010904/DTD/svg10.dtd">
<svg version="1.0" xmlns="http://www.w3.org/2000/svg"
 width="260.000000pt" height="260.000000pt" viewBox="0 0 260.000000 260.000000"
 preserveAspectRatio="xMidYMid meet">
<metadata>
Created by potrace 1.11, written by Peter Selinger 2001-2013
</metadata>
<g transform="translate(0.000000,260.000000) scale(0.100000,-0.100000)"
fill="#000000" stroke="none">
<path d="M1887 1816 c-81 -29 -97 -66 -97 -223 l0 -103 -50 0 c-37 0 -50 -4
-50 -14 0 -11 14 -16 48 -18 l47 -3 3 -292 c2 -285 3 -293 22 -293 20 0 20 7
20 295 l0 295 80 0 c64 0 80 3 80 15 0 12 -16 15 -81 15 l-81 0 4 121 3 121
33 29 c29 26 40 29 97 29 49 0 65 3 65 14 0 26 -83 33 -143 12z"/>
<path d="M827 1493 c-30 -10 -67 -34 -93 -61 l-44 -44 0 51 c0 44 -3 51 -20
51 -20 0 -20 -7 -20 -310 0 -303 0 -310 20 -310 19 0 20 7 20 229 l0 228 34
44 c18 25 57 57 85 73 47 25 60 28 126 24 55 -2 79 -8 95 -23 46 -40 50 -69
50 -330 0 -238 1 -245 20 -245 19 0 20 7 20 244 l0 243 48 45 c26 25 65 51 86
58 56 18 169 9 197 -15 45 -40 49 -69 49 -330 0 -241 0 -245 21 -245 20 0 20
3 17 263 -3 242 -5 265 -23 297 -33 55 -77 75 -170 75 -93 0 -157 -24 -205
-76 -16 -18 -31 -31 -32 -28 -2 2 -10 17 -18 33 -8 17 -30 39 -48 49 -46 27
-152 32 -215 10z"/>
</g>
</svg>
